<svg xmlns="http://www.w3.org/2000/svg" viewBox="0 0 32 32">
  <circle cx="16" cy="16" r="16" fill="#EF0027"/>
  <path fill="#fff" d="M21.932 9.913L16.747 5.26a1.09 1.09 0 00-1.477 0l-5.186 4.652a1.082 1.082 0 00-.053 1.528l.053.052 1.18 1.06-3.97 3.567a1.082 1.082 0 00-.054 1.528l.053.052 5.186 4.652a1.09 1.09 0 001.478 0l5.186-4.652a1.082 1.082 0 00.053-1.528l-.053-.052-1.18-1.06 3.97-3.567a1.082 1.082 0 00.053-1.528l-.053-.052zm-9.133 6.79l2.46-2.21a1.09 1.09 0 011.477 0l2.46 2.21-3.198 2.871-3.199-2.871z"/>
</svg>
